<svg xmlns="http://www.w3.org/2000/svg" viewBox="0 0 320.09 320.09"><defs><style>.cls-1{fill:#be202e;}.cls-2{fill:#fff;}</style></defs><title>Starfish Branding</title><g id="Ruler_Only" data-name="Ruler Only"><rect class="cls-1" x="-1.34" y="-3.78" width="324.62" height="324.62"/><path class="cls-2" d="M78.75,144.82l4.32,13.33,14,0-11.38,8.26L90.1,179.7l-11.35-8.25L67.44,179.7l4.35-13.32-11.36-8.26,14,0,4.29-13.33Zm36.7,0,4.31,13.33,14,0-11.39,8.26,4.38,13.32-11.35-8.25-11.33,8.25,4.37-13.32-11.37-8.26,14,0,4.31-13.33Zm0,34.9,4.31,13.33,14,0-11.39,8.24,4.38,13.34-11.35-8.27-11.33,8.27,4.37-13.34L97.12,193l14,0,4.31-13.33Zm0-69.72,4.31,13.36,14,0-11.39,8.22,4.38,13.35-11.35-8.29-11.33,8.29,4.37-13.35-11.37-8.22,14,0L115.45,110Zm36.7,34.82,4.31,13.33,14,0-11.38,8.26,4.35,13.32-11.33-8.25-11.32,8.25,4.36-13.32-11.37-8.26,14,0,4.3-13.33Zm0-69.72,4.31,13.33h14l-11.38,8.25L163.48,110l-11.33-8.28L140.83,110l4.36-13.33-11.37-8.25h14l4.3-13.33Zm36.69,69.72,4.32,13.33,14,0-11.35,8.26,4.35,13.32-11.34-8.25-11.33,8.25,4.36-13.32-11.36-8.26,14,0,4.29-13.33Zm36.7,0,4.31,13.33,14,0-11.37,8.26,4.36,13.32-11.34-8.25-11.32,8.25,4.35-13.32-11.37-8.26,14,0,4.32-13.33Zm-73.39,34.9,4.31,13.33,14,0-11.38,8.24,4.35,13.34-11.33-8.27-11.32,8.27,4.36-13.34L133.82,193l14,0,4.3-13.33Zm0-69.72,4.31,13.36,14,0-11.38,8.22,4.35,13.35-11.33-8.29-11.32,8.29,4.36-13.35-11.37-8.22,14,0,4.3-13.36Zm73.39,69.72,4.31,13.33,14,0-11.37,8.24,4.36,13.34-11.34-8.27-11.32,8.27,4.35-13.34L207.2,193l14,0,4.32-13.33Zm0-69.72,4.31,13.36,14,0-11.37,8.22,4.36,13.35-11.34-8.29-11.32,8.29,4.35-13.35-11.37-8.22,14,0L225.54,110ZM152.15,214.61,156.46,228h14l-11.38,8.21,4.35,13.33-11.33-8.27-11.32,8.27,4.36-13.33L133.82,228h14l4.3-13.36Z"/></g></svg>