<svg xmlns="http://www.w3.org/2000/svg" xmlns:xlink="http://www.w3.org/1999/xlink" viewBox="0 0 649.51 103.02" width="649.51" height="103.02"><defs><style type="text/css">.cls-1{isolation:isolate;}.cls-10,.cls-11,.cls-12,.cls-2,.cls-3,.cls-4,.cls-5,.cls-7,.cls-8,.cls-9{fill-rule:evenodd;}.cls-2{fill:url(#radial-gradient);}.cls-3{fill:#414141;mix-blend-mode:multiply;}.cls-4{fill:url(#radial-gradient-2);}.cls-5{fill:url(#radial-gradient-3);}.cls-6{fill:url(#radial-gradient-4);}.cls-7{fill:url(#radial-gradient-5);}.cls-8{fill:url(#linear-gradient);}.cls-9{fill:url(#radial-gradient-6);}.cls-10{fill:url(#radial-gradient-7);}.cls-11{fill:url(#radial-gradient-8);}.cls-12{fill:url(#radial-gradient-9);}.cls-13{fill:#ff751b;}</style><radialGradient id="radial-gradient" cx="72.93" cy="-8.69" r="117.62" gradientTransform="translate(55.3 -7.37) rotate(45)" gradientUnits="userSpaceOnUse"><stop offset="0" stop-color="#00a9fb"/><stop offset="0.22" stop-color="#0389f2"/><stop offset="0.57" stop-color="#075ee5"/><stop offset="0.84" stop-color="#0944de"/><stop offset="1" stop-color="#0a3adb"/></radialGradient><radialGradient id="radial-gradient-2" cx="4.35" cy="-1.26" r="59.45" gradientTransform="translate(55.3 -7.37) rotate(45)" gradientUnits="userSpaceOnUse"><stop offset="0" stop-color="#ffca07"/><stop offset="0.1" stop-color="#fec409"/><stop offset="0.22" stop-color="#fcb40d"/><stop offset="0.36" stop-color="#f89914"/><stop offset="0.51" stop-color="#f3731e"/><stop offset="0.6" stop-color="#f05b24"/><stop offset="0.74" stop-color="#dc4225"/><stop offset="0.9" stop-color="#c82a26"/><stop offset="1" stop-color="#c12126"/></radialGradient><radialGradient id="radial-gradient-3" cx="69.05" cy="43.96" r="29.57" xlink:href="#radial-gradient-2"/><radialGradient id="radial-gradient-4" cx="53.56" cy="90.16" r="14.41" gradientUnits="userSpaceOnUse"><stop offset="0" stop-color="#febc11"/><stop offset="0.29" stop-color="#fe9916"/><stop offset="0.56" stop-color="#ff7f1a"/><stop offset="0.72" stop-color="#ff751b"/></radialGradient><radialGradient id="radial-gradient-5" cx="69.56" cy="38.05" r="72.78" xlink:href="#radial-gradient-4"/><linearGradient id="linear-gradient" x1="-0.44" y1="21.64" x2="20.62" y2="21.64" gradientTransform="translate(55.3 -7.37) rotate(45)" gradientUnits="userSpaceOnUse"><stop offset="0" stop-color="#fff"/><stop offset="0.12" stop-color="#fff8f1"/><stop offset="0.36" stop-color="#ffe5cb"/><stop offset="0.68" stop-color="#ffc78f"/><stop offset="1" stop-color="#ffa64c"/></linearGradient><radialGradient id="radial-gradient-6" cx="5.85" cy="-0.91" r="56.55" xlink:href="#radial-gradient-2"/><radialGradient id="radial-gradient-7" cx="70.55" cy="106.03" r="62.29" xlink:href="#radial-gradient-2"/><radialGradient id="radial-gradient-8" cx="69.05" cy="43.88" r="29.54" xlink:href="#radial-gradient-2"/><radialGradient id="radial-gradient-9" cx="26.43" cy="29.07" r="51.18" xlink:href="#radial-gradient-2"/></defs><title>Sync Final Logo no tagline_1</title><g class="cls-1"><g id="Layer_2" data-name="Layer 2"><g id="Light"><g id="Syntactics_Logo" data-name="Syntactics Logo"><g id="symbol_3d" data-name="symbol 3d"><path class="cls-2" d="M49.7,90.7A35.7,35.7,0,0,0,87.49,57,36,36,0,1,0,49.7,90.7Z" transform="translate(0 -3.38)"/><path class="cls-3" d="M60.75,89.63c.92-.24,1.83-.52,2.72-.82-.37-5-5.36-11.25-5.36-11.25C60.75,81.17,60.75,89.42,60.75,89.63Z" transform="translate(0 -3.38)"/><path class="cls-3" d="M87.57,54c-5.34-14.26-40.92-21.56-37-35.12,1,0,1.93.09,2.94.09a36.11,36.11,0,0,1,34,35Z" transform="translate(0 -3.38)"/><path class="cls-3" d="M32.07,85c.21.14.4.29.61.42s.62.34.92.52a35.75,35.75,0,0,0,15.79,4.78c13.2-11.4-32.77-22.33-33.72-37.87A36.28,36.28,0,0,0,32.07,85Z" transform="translate(0 -3.38)"/><path class="cls-4" d="M44.93,32c-11.82-16-2.36-21.48,12.9-18,3.54-1.66,5.09-3,4.63-4.12-7.79-4.58-20-4.7-24.75-1.67-3.79,2.44-4.78,10.12-3.25,14.17,1.27,3.8,5.33,7.58,10.25,9.47Z" transform="translate(0 -3.38)"/><path class="cls-5" d="M90.47,81.84c.34-.68,8.74-19.2-9.5-38.62,11.32,8.78,19.24,22.55,9.5,38.62Z" transform="translate(0 -3.38)"/><path class="cls-6" d="M57.92,77.27c12.58,15.17,4.29,22.88-13.38,18.5-1.63-.4-4.75,3.68-6.77,5,9.7,3.13,22.89,2.89,27.6-.13,3.79-2.44,4.81-8.13,3.3-12.19-1.36-3.71-6.12-7.73-10.34-10.94Z" transform="translate(0 -3.38)"/><path id="O1" class="cls-7" d="M12.68,27.94C-9.17,69.55,69.31,80.71,40.77,99.8c9.11,2.88,29.51,5.27,27-9.65-.68-4.73-4.31-8.52-9.29-12.32h0C46.79,69.3,27.65,61.77,19.88,47.76,14.29,37.64,14.28,28.37,17,20.28,23.85,7.15,40.37,2.62,54.36,3.48c39.53,2.17,59.23,43.92,43,75.17v.17l-.25.42h0l-.08.08h0L97,79.4h0l.08.09h0l-.08.08h0l-.09.09h0A51.35,51.35,0,0,1,88.38,91a30.58,30.58,0,0,0,2.09-9.18C112.41,40.15,33.92,29,62.46,9.9c-9.77-3.05-19-2.82-23.68.22C35,12.56,34.41,17.7,35.93,21.74,41,35.91,72.71,42.87,83.28,62c5.57,10.11,5.59,19.38,2.91,27.47a32.62,32.62,0,0,1-14.65,13,50,50,0,0,1-22.75,3.85A50.38,50.38,0,0,1,12,87.88C-.71,72.39-8,43.29,14.61,18.93c-2.18,2.34-1.68,5.73-1.93,9Z" transform="translate(0 -3.38)"/><path class="cls-8" d="M62.46,9.9c-9.77-3.05-19-2.82-23.68.22C35,12.56,34.41,17.7,35.93,21.74c1.45,4.3,5.41,7.77,9,10.38,0,0-12.57-7-10.48-17a9.14,9.14,0,0,1,3.78-5.81C42,6.67,50.49,6.85,51.42,6.94a32.82,32.82,0,0,1,11,3Z" transform="translate(0 -3.38)"/><path class="cls-9" d="M44.93,32c-11.82-16-2.36-21.48,12.9-18A19.39,19.39,0,0,1,62.46,9.9c-9.77-3.05-19-2.82-23.68.22C35,12.56,34.41,17.7,35.93,21.74c1.27,3.8,4.48,7,8.78,10.13Z" transform="translate(0 -3.38)"/><path class="cls-10" d="M58.11,77.56c11.83,16,2.47,21.68-12.79,18.2a18.56,18.56,0,0,1-4.55,4c9.7,3.13,18.89,2.89,23.6-.13C68.16,97.23,68.82,92,67.31,88,66,84.24,62.75,81,58.52,77.83Z" transform="translate(0 -3.38)"/><path class="cls-11" d="M90.47,81.84c.34-.68,8.74-19.2-9.5-38.62,10.47,9.46,18.58,21.44,9.5,38.62Z" transform="translate(0 -3.38)"/><path class="cls-12" d="M12.68,27.94c-.25.6-8.65,19.12,9.5,38.62C11.63,57,3.69,45,12.68,27.94Z" transform="translate(0 -3.38)"/></g><g id="text"><path class="cls-13" d="M123.37,78V62.15h46A3.84,3.84,0,0,0,173.41,58a4.18,4.18,0,0,0-1.14-3.12,3.94,3.94,0,0,0-2.93-1.14H142.29a22.3,22.3,0,0,1-7.9-1.37,18.94,18.94,0,0,1-6.25-3.78,17,17,0,0,1-4.06-5.82,18.89,18.89,0,0,1-1.47-7.57,19.23,19.23,0,0,1,1.47-7.61,17.27,17.27,0,0,1,4.06-5.92,17.83,17.83,0,0,1,6.25-3.78,23,23,0,0,1,7.9-1.33H189v15.8H143a3.69,3.69,0,0,0-4,4.07,4.19,4.19,0,0,0,1.09,3A3.81,3.81,0,0,0,143,40.58H170.1A22.17,22.17,0,0,1,178,42a19.19,19.19,0,0,1,6.25,3.84,17.17,17.17,0,0,1,4.11,5.91,19,19,0,0,1,1.47,7.52,19.48,19.48,0,0,1-1.47,7.71,17.66,17.66,0,0,1-4.11,6A18,18,0,0,1,178,76.72,22.84,22.84,0,0,1,170.1,78Z" transform="translate(0 -3.38)"/><path class="cls-13" d="M203.4,94.5V80.88h5a8,8,0,0,0,4.73-1.23,9.68,9.68,0,0,0,2.74-3l-22.7-45.78h16l14,30.27,14.38-30.27h16.08L227.42,82.68a34.36,34.36,0,0,1-3.17,5.25,16.71,16.71,0,0,1-3.73,3.69,15,15,0,0,1-4.68,2.17,22.68,22.68,0,0,1-6,.71Z" transform="translate(0 -3.38)"/><path class="cls-13" d="M299,78V53.26q0-8-8.23-8H275V78H259.11V30.84h32.07q11.73,0,17.69,5.86t6,16.65V78Z" transform="translate(0 -3.38)"/><path class="cls-13" d="M340.18,78q-8.61,0-12.91-4.49T323,60.73V17.41h15.7V30.84h18.92V43.89H338.67V59.5q0,5.58,5.58,5.58h12.87V78Z" transform="translate(0 -3.38)"/><path class="cls-13" d="M379.44,78q-7.47,0-11.16-3.88a13.92,13.92,0,0,1-3.69-10A14.09,14.09,0,0,1,368.28,54q3.69-3.87,11.16-3.87H397v9.17H383c-2.33,0-3.5,1.11-3.5,3.31s1.11,3.31,3.31,3.31h18.83V52.31q0-8-8.23-8h-26.3V30.84h26.49q11.82,0,17.69,5.82t5.86,16.69V78Z" transform="translate(0 -3.38)"/><path class="cls-13" d="M449.91,78a29.24,29.24,0,0,1-10.12-1.7,23.94,23.94,0,0,1-8-4.83,21.78,21.78,0,0,1-5.3-7.47,23.94,23.94,0,0,1-1.89-9.65,23.73,23.73,0,0,1,1.89-9.55,21.78,21.78,0,0,1,5.3-7.47,23.94,23.94,0,0,1,8-4.83,29.24,29.24,0,0,1,10.12-1.7H471.2V45.22H449.82a9.65,9.65,0,0,0-6.91,2.5,8.8,8.8,0,0,0-2.65,6.67,8.92,8.92,0,0,0,2.65,6.72,9.55,9.55,0,0,0,6.91,2.55H471.2V78Z" transform="translate(0 -3.38)"/><path class="cls-13" d="M496.08,78q-8.61,0-12.92-4.49t-4.3-12.82V17.41h15.7V30.84h18.92V43.89H494.56V59.5q0,5.58,5.58,5.58H513V78Z" transform="translate(0 -3.38)"/><path class="cls-13" d="M528.52,26.2a7.36,7.36,0,0,1-5.15-1.84,6.48,6.48,0,0,1-2-5.06,6.25,6.25,0,0,1,2-4.87,7.36,7.36,0,0,1,5.15-1.85h2.18a7.19,7.19,0,0,1,5.1,1.85,6.31,6.31,0,0,1,2,4.87,6.55,6.55,0,0,1-2,5.06,7.18,7.18,0,0,1-5.1,1.84ZM521.62,78V30.84h15.79V78Z" transform="translate(0 -3.38)"/><path class="cls-13" d="M570.24,78a29.24,29.24,0,0,1-10.12-1.7,23.94,23.94,0,0,1-8-4.83,21.65,21.65,0,0,1-5.3-7.47,23.94,23.94,0,0,1-1.89-9.65,23.73,23.73,0,0,1,1.89-9.55,21.65,21.65,0,0,1,5.3-7.47,23.94,23.94,0,0,1,8-4.83,29.24,29.24,0,0,1,10.12-1.7h21.28V45.22H570.14a9.61,9.61,0,0,0-6.9,2.5,8.76,8.76,0,0,0-2.65,6.67,8.89,8.89,0,0,0,2.65,6.72,9.51,9.51,0,0,0,6.9,2.55h21.38V78Z" transform="translate(0 -3.38)"/><path class="cls-13" d="M597.76,78v-13h33.3q3.32,0,3.31-3t-3.31-2.94H612.52A18,18,0,0,1,606.09,58a14.54,14.54,0,0,1-4.83-3,12.62,12.62,0,0,1-3-4.5,14.88,14.88,0,0,1-1-5.63,14.31,14.31,0,0,1,1.13-5.81,12.58,12.58,0,0,1,3.22-4.45,14.63,14.63,0,0,1,4.82-2.84,17.75,17.75,0,0,1,6.06-1h34.71v13H615.36q-3.23,0-3.22,2.93c0,2,1.07,2.93,3.22,2.93h18.92q7.28,0,11.26,4a13.74,13.74,0,0,1,4,10.12,14.56,14.56,0,0,1-1.14,5.91,13.14,13.14,0,0,1-3.17,4.49,13.55,13.55,0,0,1-4.82,2.89,18.15,18.15,0,0,1-6.1,1Z" transform="translate(0 -3.38)"/></g></g></g></g></g></svg>